<!--?xml version="1.0" encoding="utf-8"?-->
<!-- Generator: Adobe Illustrator 18.1.1, SVG Export Plug-In . SVG Version: 6.00 Build 0)  -->

<svg version="1.1" id="_x32_" xmlns="http://www.w3.org/2000/svg" xmlns:xlink="http://www.w3.org/1999/xlink" x="0px" y="0px" viewBox="0 0 512 512" style="width: 256px; height: 256px; opacity: 1;" xml:space="preserve">
<style type="text/css">
	.st0{fill:#4B4B4B;}
</style>
<g>
	<path class="st0" d="M464.027,211.494c-17.068-17.261-41.008-27.587-66.869-27.546c-7.956-0.01-16.056,1.236-24.156,3.197
		c5.812-11.174,9.151-23.839,9.151-37.311c-0.02-30.446-16.893-56.839-41.722-70.668C327.889,33.511,286.217,0.03,236.63,0
		c-18.65-0.01-36.207,4.852-51.508,13.217c-11.776-7.242-25.667-11.5-40.508-11.49c-37.035,0.03-67.86,25.952-75.612,60.648
		C40.67,73.64,20.601,101.135,20.57,133.503c0,21.183,8.579,40.344,22.439,54.224v241.175c0,45.9,37.198,83.098,83.088,83.098
		h139.59c45.89,0,83.098-37.198,83.098-83.098v-30.528c3.984,0.367,7.987,0.582,12.011,0.582c27.434-0.071,55.726-8.222,79.79-24.88
		c12-8.354,22.879-18.946,31.499-31.794c8.63-12.829,14.922-27.934,17.772-44.644c1.052-6.149,1.573-12.246,1.573-18.231
		C491.481,252.952,481.164,228.704,464.027,211.494z M341.891,178.095H89.614c-9.437-1.614-17.864-6.006-24.38-12.512
		c-8.232-8.262-13.278-19.497-13.288-32.08c-0.032-21.337,14.829-39.241,34.696-44.042l11.02-2.666l0.928-11.306
		c1.941-23.686,21.796-42.418,46.023-42.386c11.378,0.009,21.622,4.064,29.742,10.866l9.162,7.701l9.846-6.801
		c12.337-8.519,27.137-13.482,43.265-13.493c37.034-0.03,67.92,26.453,74.856,61.435l1.603,8.11l7.599,3.259
		c17.69,7.628,30.11,25.176,30.089,45.654C350.768,160.405,347.467,170.068,341.891,178.095z M438.319,288.791
		c-1.634,9.438-4.974,17.343-9.652,24.349c-6.996,10.439-17.302,18.875-29.446,24.697c-12.093,5.822-25.892,8.845-38.424,8.824
		c-4.218,0.011-8.211-0.408-12.011-1.042v-85.917c5.465-5.372,10.857-9.704,16.035-13.013c12.053-7.68,22.92-10.427,32.337-10.448
		c12.124,0.03,22.246,4.586,29.742,12.083c7.425,7.558,12.184,17.976,12.236,31.08C439.136,282.387,438.881,285.512,438.319,288.791
		z" style="fill: rgb(209, 219, 12);"></path>
</g>
</svg>
