<!--?xml version="1.0" encoding="utf-8"?-->
<!-- Generator: Adobe Illustrator 18.1.1, SVG Export Plug-In . SVG Version: 6.00 Build 0)  -->

<svg version="1.1" id="_x32_" xmlns="http://www.w3.org/2000/svg" xmlns:xlink="http://www.w3.org/1999/xlink" x="0px" y="0px" viewBox="0 0 512 512" style="width: 256px; height: 256px; opacity: 1;" xml:space="preserve">
<style type="text/css">
	.st0{fill:#4B4B4B;}
</style>
<g>
	<polygon class="st0" points="453.331,15.752 400.888,68.203 443.796,111.119 496.248,58.668 	" style="fill: rgb(165, 131, 48);"></polygon>
	<polygon class="st0" points="445.245,10.466 434.779,0 417.703,17.086 428.168,27.552 	" style="fill: rgb(165, 131, 48);"></polygon>
	<polygon class="st0" points="412.689,43.022 402.223,32.556 385.147,49.642 395.611,60.108 	" style="fill: rgb(165, 131, 48);"></polygon>
	<polygon class="st0" points="501.533,66.754 484.447,83.832 494.922,94.297 511.999,77.229 	" style="fill: rgb(165, 131, 48);"></polygon>
	<polygon class="st0" points="451.891,116.387 462.365,126.853 479.442,109.785 468.977,99.31 	" style="fill: rgb(165, 131, 48);"></polygon>
	<path class="st0" d="M340.983,223.766l-42.566,44.655l-54.831-54.84l44.647-42.566l-18.289-18.289
		c-23.065-23.064-60.468-23.064-83.542,0c-9.64,9.65-16.093,23.996-20.387,35.911c-7.146,19.868-20.009,35.181-37.665,39.255
		c-30.994,7.147-77.878,6.392-105.694,40.528c-34.962,42.916-35.752,99.336,42.916,178.004
		c78.668,78.677,135.098,77.878,178.006,42.917c34.128-27.815,33.381-74.7,40.528-105.693c4.074-17.657,19.386-30.519,39.255-37.666
		c11.914-4.285,26.261-10.764,35.902-20.405c23.064-23.065,23.064-60.468,0-83.532L340.983,223.766z M159.107,406.934
		l-54.041-54.032l14.302-14.312l54.041,54.04L159.107,406.934z M260.269,320.082c-18.877,18.868-49.466,18.868-68.343,0
		c-18.878-18.877-18.878-49.475,0-68.344c18.877-18.877,49.466-18.877,68.343,0C279.137,270.608,279.137,301.206,260.269,320.082z" style="fill: rgb(165, 131, 48);"></path>
	<polygon class="st0" points="373.741,106.888 405.094,138.25 424.296,118.1 393.891,87.694 	" style="fill: rgb(165, 131, 48);"></polygon>
	<polygon class="st0" points="373.048,171.876 340.123,138.952 319.498,158.61 353.389,192.501 	" style="fill: rgb(165, 131, 48);"></polygon>
	<polygon class="st0" points="261.604,213.792 298.207,250.405 321.333,226.137 285.863,190.666 	" style="fill: rgb(165, 131, 48);"></polygon>
	<polygon class="st0" points="346.629,132.745 379.255,165.371 398.896,144.764 367.235,113.104 	" style="fill: rgb(165, 131, 48);"></polygon>
	<polygon class="st0" points="347.182,199.007 312.984,164.809 292.377,184.458 327.541,219.622 	" style="fill: rgb(165, 131, 48);"></polygon>
</g>
</svg>
