<!--?xml version="1.0" encoding="utf-8"?-->
<!-- Generator: Adobe Illustrator 18.1.1, SVG Export Plug-In . SVG Version: 6.00 Build 0)  -->

<svg version="1.1" id="_x32_" xmlns="http://www.w3.org/2000/svg" xmlns:xlink="http://www.w3.org/1999/xlink" x="0px" y="0px" viewBox="0 0 512 512" style="width: 256px; height: 256px; opacity: 1;" xml:space="preserve">
<style type="text/css">
	.st0{fill:#4B4B4B;}
</style>
<g>
	<circle class="st0" cx="312.246" cy="39.975" r="39.975" style="fill: rgb(75, 75, 75);"></circle>
	<path class="st0" d="M487.819,219.988l-25.58-59.152c-4.353-9.203-11.858-16.542-21.168-20.67l-47.558-21.12
		c-22.681-10.072-47.616-14.005-72.307-11.409l-36.139,3.806c-13.995,1.474-27.708,5.027-40.658,10.55L196.49,142.4l-56.176-13.312
		c-9.74-1.982-19.236,4.313-21.208,14.053c-1.991,9.74,4.353,18.221,14.054,21.217l52.35,17.557
		c9.886,3.016,20.436,3.133,30.381,0.313l55.697-14.406l9.994,47.47l-67.292,29.864c-14.424,5.329-25.667,16.874-30.614,31.435
		l-32.714,96.307c-3.621,11.876,3.084,24.446,14.972,28.067c11.878,3.612,23.061-2.478,28.058-14.971l38.726-93.69l66.022-27.854
		c2.176-0.917,4.695-0.391,6.315,1.327c1.63,1.718,2.02,4.255,0.976,6.383l-19.597,40.131l-13.117,94.237
		c-1.757,12.297,6.773,23.696,19.07,25.462c12.297,1.757,22.359-4.772,25.463-19.079l17.303-90.627l36.354-49.5
		c14.239-19.383,19.588-43.888,14.747-67.447l-9.877-47.949l46.64,19.158l32.031,58.313c4.118,9.066,14.776,13.068,23.823,8.95
		C487.926,239.692,491.928,229.034,487.819,219.988z" style="fill: rgb(75, 75, 75);"></path>
	<path class="st0" d="M419.034,479.92c-1.952,0.069-3.909,0.098-5.866,0.098c-13.999,0-27.96-1.806-41.512-5.378L81.542,398.136
		c-7.621-2.01-14.844-5.308-21.338-9.759l-19.582-13.39l-18.055,26.39l19.578,13.389h-0.005c9.525,6.52,20.099,11.35,31.249,14.298
		l290.119,76.495c16.201,4.274,32.899,6.441,49.661,6.441c2.332,0,4.675-0.039,7.018-0.127l31.708-1.142l-1.151-31.952
		L419.034,479.92z" style="fill: rgb(75, 75, 75);"></path>
</g>
</svg>
